# xmcd CD database file
#
# Track frame offsets:
#	150
#	33551
#	55149
#	79802
#	102153
#	132005
#	144244
#	162855
#	174735
#	191099
#	231717
#	251737
#	274039
#	294173
#
# Disc length: 4203 seconds
#
# Revision: 2
# Processed by: cddbd v1.5.2PL0 Copyright (c) Steve Scherf et al.
# Submitted via: CDex 1.70beta2
#
DISCID=c710690e
DTITLE=The Toni Kofi Quartet Plays Monk - All is know
DYEAR=2004
DGENRE=Jazz
TTITLE0=Boo Boo's Birthday
TTITLE1=Ugly Beauty
TTITLE2=Trinkle Tinkle
TTITLE3=Ruby My Dear
TTITLE4=Brilliant Corners
TTITLE5=Comin' On The Hudson
TTITLE6=We See
TTITLE7=Crepescule With Nellie
TTITLE8=Teo
TTITLE9=Misterioso
TTITLE10=Gallop's Gallop
TTITLE11=Light Blue
TTITLE12=Think Of One
TTITLE13=Monk's Mood
EXTD=YEAR: 2004
EXTT0=
EXTT1=
EXTT2=
EXTT3=
EXTT4=
EXTT5=
EXTT6=
EXTT7=
EXTT8=
EXTT9=
EXTT10=
EXTT11=
EXTT12=
EXTT13=
PLAYORDER=
